<?xml version="1.0" standalone="no"?>
<!DOCTYPE svg PUBLIC "-//W3C//DTD SVG 20010904//EN"
 "http://www.w3.org/TR/2001/REC-SVG-20010904/DTD/svg10.dtd">
<svg version="1.0" xmlns="http://www.w3.org/2000/svg"
 width="360.000000pt" height="360.000000pt" viewBox="0 0 360.000000 360.000000"
 preserveAspectRatio="xMidYMid meet">

<g transform="translate(0.000000,360.000000) scale(0.100000,-0.100000)"
fill="#000000" stroke="none">
<path d="M3000 3590 c-14 -4 -142 -51 -285 -103 -143 -52 -705 -257 -1250
-455 -1351 -492 -1318 -479 -1337 -503 -10 -12 -18 -35 -18 -52 0 -17 40 -142
90 -278 l90 -246 0 -951 0 -950 31 -26 31 -26 1543 2 1543 3 26 24 26 24 0
983 0 982 -31 26 -31 26 -1335 0 c-735 0 -1334 2 -1331 5 5 5 270 102 1658
607 862 313 870 316 870 373 0 24 -148 442 -175 495 -8 15 -28 33 -46 39 -36
12 -35 12 -69 1z m-325 -471 c-14 -85 -29 -157 -33 -161 -6 -5 -336 -128 -346
-128 -7 0 52 322 60 330 16 14 339 129 342 120 2 -4 -9 -77 -23 -161z m384 70
c12 -39 21 -72 19 -73 -12 -9 -69 -28 -73 -24 -7 6 18 168 25 168 3 0 16 -32
29 -71z m-1063 -176 c-2 -10 -15 -81 -27 -158 -12 -77 -26 -144 -31 -150 -16
-18 -343 -133 -345 -121 -1 6 10 81 25 166 l27 155 165 62 c91 34 171 62 178
62 8 1 11 -6 8 -16z m-731 -414 c-14 -84 -27 -154 -28 -155 -9 -9 -341 -124
-345 -119 -6 5 44 314 52 322 2 3 80 33 173 67 108 40 169 57 171 50 2 -7 -9
-81 -23 -165z m-681 -121 c-4 -24 -16 -99 -28 -167 l-21 -123 -50 -19 c-28
-11 -56 -18 -64 -17 -11 3 -113 257 -106 266 4 4 258 100 268 101 4 1 4 -18 1
-41z m176 -595 c0 -4 -36 -71 -81 -150 l-81 -143 -64 0 -64 0 0 150 0 150 145
0 c80 0 145 -3 145 -7z m750 1 c0 -3 -36 -70 -81 -150 l-81 -144 -184 0 c-105
0 -184 4 -184 9 0 8 110 209 146 269 14 22 18 22 199 22 102 0 185 -3 185 -6z
m750 0 c0 -3 -36 -70 -81 -150 l-81 -144 -184 0 c-117 0 -184 4 -184 10 0 9
109 207 146 268 14 22 18 22 199 22 102 0 185 -3 185 -6z m750 0 c0 -3 -37
-70 -81 -150 l-82 -144 -183 0 c-120 0 -184 4 -184 10 0 10 134 253 153 278 7
9 58 12 193 12 101 0 184 -3 184 -6z m300 -214 l0 -80 -40 0 c-22 0 -40 3 -40
8 0 7 73 152 78 152 1 0 2 -36 2 -80z"/>
</g>
</svg>
